<svg style="position: absolute; width: 0; height: 0;" width="0" height="0" version="1.1" xmlns="http://www.w3.org/2000/svg" xmlns:xlink="http://www.w3.org/1999/xlink"><defs><symbol id="007-setting" viewBox="0 -212 1024 1024"><path d="M288 512 q19 0 32 -13 q13 -13 13 -32 l0 -19 q26 -11 49 -29 l30 18 q11 6 23 6 q12 0 23 -6 q10 -6 16 -17 l32 -56 q9 -17 5 -35 q-5 -17 -21 -27 l-31 -18 q2 -29 0 -56 l31 -18 q16 -10 21 -28 q4 -17 -5 -34 l-32 -56 q-6 -11 -16 -17 q-11 -6 -23 -6 q-12 0 -23 6 l-30 18 q-23 -18 -49 -29 l0 -19 q0 -19 -13 -32 q-13 -13 -32 -13 l-64 0 q-19 0 -32 13 q-13 13 -13 32 l0 19 q-26 11 -49 29 l-30 -18 q-11 -6 -23 -6 q-12 0 -22 6 q-11 6 -17 17 l-32 56 q-9 17 -4 34 q4 18 20 28 l31 18 q-1 26 0 56 l-31 18 q-16 10 -20 27 q-5 18 4 35 l32 56 q6 11 17 17 q10 6 22 6 q12 0 23 -6 l30 -18 q23 18 49 29 l0 19 q0 19 13 32 q13 13 32 13 l64 0 l0 0 ZM131 391 q-3 0 -6 1 l-38 22 q-7 4 -14 2 q-8 -2 -12 -9 l-33 -56 q-4 -7 -2 -15 q2 -7 9 -12 l38 -21 q7 -5 6 -12 q-2 -39 0 -70 q1 -7 -6 -12 l-38 -21 q-7 -5 -9 -13 q-2 -7 2 -14 l33 -56 q4 -7 12 -9 q7 -2 14 2 l38 22 q8 4 15 -2 q26 -22 56 -33 q8 -3 9 -12 l0 -28 q0 -8 6 -14 q5 -5 13 -5 l64 0 q8 0 14 5 q5 6 5 14 l0 28 q1 9 9 12 q30 11 56 33 q7 6 15 2 l38 -22 q7 -4 15 -2 q7 2 11 9 l33 56 q4 7 2 14 q-2 8 -9 13 l-38 21 q-7 5 -6 13 q1 15 1 33 q0 18 -1 36 q-1 7 6 12 l38 21 q7 5 9 12 q2 8 -2 15 l-33 56 q-4 7 -11 9 q-8 2 -15 -2 l-38 -22 q-8 -4 -15 2 q-26 22 -56 33 q-8 3 -9 12 l0 28 q0 8 -5 13 q-6 6 -14 6 l-64 0 q-8 0 -13 -6 q-6 -5 -6 -13 l0 -28 q-1 -9 -9 -12 q-30 -11 -56 -33 q-4 -3 -9 -3 l0 0 ZM256 369 q48 -1 80 -33 q32 -32 33 -80 q-1 -48 -33 -80 q-32 -32 -80 -33 q-48 1 -80 33 q-32 32 -33 80 q1 48 33 80 q32 32 80 33 l0 0 ZM256 169 q37 1 62 25 q24 25 24 62 q0 37 -24 61 q-25 25 -62 25 q-37 0 -61 -25 q-25 -24 -25 -61 q0 -37 25 -62 q24 -24 61 -25 l0 0 Z"></path></symbol><symbol id="unie61c" viewBox="0 -212 1024 1024"><path d="M922 543 q40 38 40 95 q0 61 -44 97 q-20 15 -45 23 q-12 3 -24 5 q-12 2 -25 2 l-592 0 q-13 0 -25 -2 q-13 -2 -24 -5 q-6 -2 -12 -5 q-6 -2 -12 -5 q-6 -3 -11 -7 l-10 -6 q-45 -36 -45 -96 q0 -58 41 -96 q34 -33 89 -42 q3 -1 7 -2 l6 0 l8 -2 q59 -10 89 -17 q16 -4 29 -9 q12 -4 17 -6 q4 -2 6 -4 q7 -11 12 -41 l-3 -3 q-59 -41 -93 -117 q-7 -2 -13 -5 q-7 -5 -14 -11 q-7 -5 -13 -12 q-22 -26 -27 -62 q-2 -10 -2 -19 q0 -34 16 -59 q4 -6 9 -12 q4 -5 10 -9 q1 -19 5 -37 q3 -18 8 -34 q5 -16 12 -31 q23 -51 67 -85 q29 -23 64 -36 q35 -13 59 -17 q23 -3 46 -3 q98 0 169 56 l10 8 l10 10 q5 5 9 10 l10 10 l8 10 q3 6 7 12 q4 6 7 12 q3 6 6 13 q21 45 25 102 q11 9 18 21 q16 25 16 58 l0 10 q0 5 -1 10 q-3 18 -10 33 q-7 16 -17 29 q-6 7 -13 12 q-7 6 -14 11 q-7 3 -14 5 q-33 76 -92 117 q-1 1 -2 1 l-2 2 l2 12 l3 10 q1 4 3 8 q1 4 2 6 q1 3 2 5 q13 9 53 19 q29 7 88 17 q15 2 22 4 q55 9 89 42 l0 0 ZM629 378 q1 -1 2 -1 l1 -1 q26 -19 47 -47 q21 -28 34 -64 l5 -11 l12 -1 q7 0 13 -3 q3 -2 7 -5 q3 -2 6 -6 l6 -8 q2 -4 4 -9 q2 -4 4 -9 q1 -5 1 -10 q1 -3 1 -6 l0 -6 q0 -19 -8 -32 q-5 -9 -14 -12 l-11 -5 l-1 -12 q-1 -57 -20 -100 q-19 -39 -53 -66 q-33 -26 -69 -36 q-37 -9 -68 -9 q-80 0 -137 45 q-34 27 -53 66 q-20 43 -21 100 l0 12 l-11 5 q-4 1 -8 4 q-4 4 -6 8 q-8 13 -9 32 q0 5 1 12 q4 21 16 36 q6 7 13 11 l6 2 q3 1 7 1 l12 1 l4 11 q28 73 81 111 l4 2 l1 1 q1 1 2 1 l1 1 q2 1 3 1 q0 1 1 1 l3 2 l2 0 q0 1 1 1 q0 1 1 1 q1 1 3 1 q2 1 3 2 q3 1 4 2 q34 15 76 15 q19 0 38 -4 q19 -3 37 -11 l4 -2 q1 0 3 -1 q1 0 1 -1 q1 0 3 -1 q1 0 1 -1 q1 0 2 -1 l1 -1 q1 0 2 -1 l2 0 l3 -3 q1 0 3 -1 l1 -1 l0 0 ZM911 639 q0 -24 -11 -43 q-11 -18 -30 -29 q-20 -11 -46 -16 q-6 -1 -21 -4 q-16 -2 -27 -4 q-12 -2 -29 -6 q-17 -3 -30 -6 q-13 -3 -28 -8 q-15 -4 -26 -9 q-11 -4 -20 -10 q-9 -5 -13 -11 q-18 -25 -25 -85 q-35 14 -77 14 q-42 0 -77 -14 q-2 11 -3 22 q-2 11 -5 23 q-3 12 -7 22 q-5 10 -10 18 q-4 5 -11 10 q-8 5 -18 9 q-10 5 -21 9 q-11 4 -24 7 q-14 3 -26 6 q-12 3 -27 5 l-25 5 q-10 2 -23 4 q-13 2 -19 3 q-40 7 -64 29 q-24 23 -24 58 q0 36 25 55 q25 20 63 20 l592 0 q38 0 63 -20 q24 -19 24 -54 l0 0 Z"></path></symbol><symbol id="_video_126" viewBox="0 -212 1024 1024"><path d="M890 -39 q38 1 63 25 q25 25 26 63 l0 504 q-1 37 -26 62 q-25 25 -63 26 l-758 0 q-38 -1 -63 -26 q-25 -24 -26 -62 l0 -504 q1 -38 26 -63 q25 -24 63 -25 l758 0 l0 0 ZM408 486 l266 -184 l-266 -184 l0 368 l0 0 Z"></path></symbol><symbol id="question_sign" viewBox="0 -212 1024 1024"><path d="M589 601 q0 8 -5 14 q-6 5 -14 5 l-116 0 q-8 0 -14 -5 q-5 -6 -5 -14 l0 -116 q0 -8 5 -14 q6 -5 14 -5 l116 0 q8 0 14 5 q5 6 5 14 l0 116 l0 0 ZM743 196 q0 27 -7 49 q-8 22 -17 36 q-10 15 -27 29 q-18 15 -28 21 q-10 7 -29 18 q-20 11 -33 29 q-13 19 -13 30 q0 9 -5 14 q-6 5 -14 5 l-116 0 q-8 0 -14 -5 q-5 -5 -5 -14 l0 -21 q0 -41 32 -76 q31 -35 69 -52 q29 -13 41 -27 q12 -14 12 -37 q0 -20 -22 -35 q-23 -16 -52 -16 q-31 0 -52 15 q-20 14 -51 55 q-6 7 -15 7 q-8 0 -12 -3 l-79 -61 q-14 -10 -5 -25 q77 -128 223 -128 q52 0 102 25 q50 24 84 69 q33 46 33 98 l0 0 ZM912 80 q-62 -106 -168 -168 q-106 -62 -232 -62 q-126 0 -232 62 q-106 62 -168 168 q-62 106 -62 232 q0 126 62 232 q62 106 168 168 q106 62 232 62 q126 0 232 -62 q106 -62 168 -168 q62 -106 62 -232 q0 -126 -62 -232 l0 0 Z"></path></symbol><symbol id="comment" viewBox="0 -212 1024 1024"><path d="M1055 41.88 q-73 -88 -196 -140 q-124 -51 -271 -51 q-109 0 -209 30 q-100 31 -172 82 q-72 52 -114 123 q-43 71 -43 150 q0 90 55 168 q54 79 148 132 q-7 25 -16 46 q-9 22 -16 36 q-7 13 -19 30 q-13 17 -19 24 q-6 7 -21 22 q-14 17 -18 22 q-1 1 -5 5 q-4 4 -4 5 q-1 1 -4 5 q-3 5 -2 6 q0 1 -1 6 q-2 5 0 7 q2 12 10 18 q8 7 18 6 q39 -5 69 -13 q157 -41 276 -146 q45 5 87 5 q147 0 271 -52 q123 -51 196 -140 q72 -88 72 -192 q0 -105 -72 -194 l0 0 Z"></path></symbol><symbol id="edit" viewBox="0 -212 1024 1024"><path d="M633 543 l-37 0 l0 -63 l-63 0 l0 -37 l76 -76 l100 100 l-76 76 l0 0 ZM921 92 l-230 230 q-11 11 -21 0 q-11 -10 0 -21 l230 -230 q11 -11 22 -1 q10 11 -1 22 l0 0 ZM974 460 q0 -13 -13 -19 q-13 -5 -23 5 l-42 42 q-6 6 -6 14 l0 83 q0 43 -31 74 q-31 31 -74 31 l-546 0 q-43 0 -74 -31 q-31 -31 -31 -74 l0 -546 q0 -43 31 -74 q31 -31 74 -31 l546 0 q14 0 30 4 q11 4 21 -5 l32 -32 q8 -8 6 -20 q-2 -10 -12 -15 q-36 -16 -77 -16 l-546 0 q-78 0 -133 55 q-56 56 -56 134 l0 546 q0 78 56 133 q55 56 133 56 l546 0 q78 0 134 -56 q55 -55 55 -133 l0 -125 l0 0 ZM911 -24 l-441 441 l0 189 l189 0 l441 -441 l-189 -189 l0 0 ZM1202 63 q19 -19 19 -45 q0 -26 -19 -45 l-99 -99 q-19 -19 -45 -19 q-26 0 -45 19 l-60 60 l189 189 l60 -60 l0 0 Z"></path></symbol><symbol id="pencil" viewBox="0 -212 1024 1024"><path d="M271 696 l-65 0 l0 -78 l-78 0 l0 -65 l56 -56 l143 143 l-56 56 l0 0 ZM590 130 q0 6 -4 10 l-330 331 q-5 4 -11 4 q-13 0 -13 -13 q0 -6 4 -11 l331 -330 q4 -4 10 -4 q13 0 13 13 l0 0 ZM557 13 l-507 507 l0 254 l254 0 l507 -507 l-254 -254 l0 0 ZM974 71 q0 -31 -23 -55 l-143 -143 q-23 -23 -55 -23 q-33 0 -55 23 l-102 101 l254 254 l101 -102 q23 -22 23 -55 l0 0 Z"></path></symbol><symbol id="comments" viewBox="0 -212 1024 1024"><path d="M912 17.86 q-62 -78 -168 -123 q-107 -44 -232 -44 q-126 0 -232 44 q-107 45 -168 123 q-62 77 -62 168 q0 78 47 147 q46 69 127 116 q-6 16 -13 29 q-7 13 -16 25 q-10 13 -15 19 q-5 7 -17 20 q-12 12 -15 16 l-3 3 q-2 2 -3 3 q-1 1 -2 3 q-2 3 -3 4 q0 2 -1 4 q-1 2 -1 4 q-1 1 -1 3 q0 3 1 5 q1 9 7 14 q6 5 14 5 l2 0 q32 -5 56 -10 q101 -27 182 -84 q59 10 116 10 q125 0 232 -45 q106 -45 168 -122 q61 -77 61 -169 q0 -91 -61 -168 l0 0 ZM1225 353.86 q0 -80 -49 -151 q-49 -70 -134 -116 q15 49 15 99 q0 88 -44 167 q-44 79 -126 139 q-76 55 -173 85 q-97 29 -202 29 q-20 0 -58 -3 q132 87 309 87 q57 0 116 -10 q81 57 182 83 q24 6 57 11 q7 1 14 -5 q7 -5 9 -14 q0 -2 0 -5 l0 -4 l-1 -4 q-1 -2 -2 -3 l-2 -4 q-2 -2 -3 -3 q-1 -1 -3 -3 l-3 -3 q-3 -4 -15 -16 q-11 -13 -17 -20 q-5 -7 -14 -19 q-10 -12 -17 -25 q-7 -13 -13 -29 q81 -47 128 -116 q46 -68 46 -147 l0 0 Z"></path></symbol><symbol id="star" viewBox="0 -212 1024 1024"><path d="M1019 208 q0 -21 -33 -26 l-292 -43 l-131 -265 q-11 -24 -29 -24 q-17 0 -28 24 l-131 265 l-292 43 q-33 5 -33 26 q0 13 15 28 l211 206 l-50 292 q-1 8 -1 11 q0 12 7 21 q5 8 18 8 q10 0 23 -7 l261 -137 l262 137 q12 7 23 7 q12 0 18 -8 q6 -9 6 -21 q0 -7 -1 -11 l-50 -292 l212 -206 q15 -15 15 -28 l0 0 Z"></path></symbol><symbol id="006-share" viewBox="0 -212 1024 1024"><path d="M491 162 q9 0 15 -6 q6 -6 6 -15 q0 -8 -6 -14 l-116 -116 q-7 -7 -15 -7 q-8 0 -14 6 q-7 7 -7 15 q0 8 6 15 l117 116 q6 6 14 6 l0 0 ZM375 278 q8 0 15 -6 l116 -116 q6 -6 6 -15 q0 -8 -6 -14 q-6 -6 -14 -6 q-9 0 -15 6 l-117 116 q-6 6 -6 14 q0 9 7 15 q6 6 14 6 l0 0 ZM149 381 q8 0 14 -5 q5 -4 7 -11 q26 -109 104 -160 q78 -50 210 -43 q8 0 15 -6 q6 -5 7 -14 q0 -8 -6 -15 q-6 -6 -14 -6 q-295 -14 -357 234 q-2 9 3 16 q4 7 12 9 q3 1 5 1 l0 0 ZM198 75 q9 0 15 -6 q6 -5 6 -14 q0 -9 -6 -15 q-6 -6 -15 -6 l-177 0 q-9 0 -15 6 q-6 6 -6 15 q0 9 6 14 q6 6 15 6 l177 0 l0 0 ZM21 505 q9 -1 15 -7 q5 -5 6 -14 l0 -429 q-1 -9 -6 -15 q-6 -6 -15 -6 q-9 0 -15 6 q-6 6 -6 15 l0 429 q0 9 6 14 q6 6 15 7 l0 0 ZM477 508 q9 -1 15 -7 q6 -5 6 -14 q0 -9 -6 -15 q-6 -6 -15 -6 l-456 0 q-9 0 -15 6 q-6 6 -6 15 q0 9 6 14 q6 6 15 7 l456 0 l0 0 ZM477 505 q9 -1 15 -7 q6 -5 6 -14 l0 -147 q0 -8 -6 -14 q-6 -6 -15 -6 q-9 0 -15 6 q-6 6 -6 14 l0 147 q0 9 6 14 q6 6 15 7 l0 0 Z"></path></symbol><symbol id="unie002" viewBox="0 -212 1024 1024"><path d="M587 -53 q122 0 229 34 q106 35 186 94 q80 59 126 138 q46 80 46 171 q0 90 -46 169 q-46 80 -126 139 q-80 60 -186 94 q-107 35 -229 35 q-27 0 -54 -2 q-27 -2 -53 -6 q-1 1 -56 22 q-56 21 -122 46 q-67 26 -122 47 l-55 21 l18 -33 q18 -33 40 -73 q21 -39 40 -73 l18 -33 q-55 -30 -99 -69 q-45 -38 -76 -83 q-32 -45 -49 -96 q-17 -51 -17 -105 q0 -91 46 -171 q46 -79 126 -138 q80 -59 187 -94 q106 -34 228 -34 l0 0 ZM328 440 q23 0 39 -16 q16 -16 16 -38 q0 -23 -16 -39 q-16 -16 -39 -16 q-22 0 -38 16 q-16 16 -16 39 q0 22 16 38 q16 16 38 16 l0 0 ZM607 440 q22 0 38 -16 q16 -16 16 -38 q0 -23 -16 -39 q-16 -16 -38 -16 q-23 0 -39 16 q-16 16 -16 39 q0 22 16 38 q16 16 39 16 l0 0 ZM882 440 q23 0 39 -16 q16 -16 16 -38 q0 -23 -16 -39 q-16 -16 -39 -16 q-22 0 -38 16 q-16 16 -16 39 q0 22 16 38 q16 16 38 16 l0 0 Z"></path></symbol><symbol id="___63" viewBox="0 -212 1024 1024"><path d="M847 -19 q22 1 36 15 q14 14 15 36 l0 534 q-1 22 -15 36 q-14 14 -36 15 l-666 0 q-22 -1 -36 -15 q-14 -14 -15 -36 l0 -534 q1 -22 15 -36 q14 -14 36 -15 l666 0 l0 0 ZM832 525 l1 -453 q0 -11 -7 -19 q-8 -7 -19 -7 l-585 0 q-11 0 -18 7 q-8 8 -8 19 l-1 453 q0 11 8 18 q7 8 18 8 l585 0 q11 0 19 -8 q7 -7 7 -18 l0 0 ZM606 272 q8 3 13 10 q5 8 5 17 q-1 19 -15 27 l-147 86 q-7 5 -16 5 q-13 0 -22 -9 q-9 -9 -9 -22 l0 -170 q0 -13 9 -22 q9 -9 22 -9 q9 0 17 5 l72 41 l71 41 l0 0 Z"></path></symbol><symbol id="_e61f_14" viewBox="0 -212 1024 1024"><path d="M821 274.66 q55 -102 28 -207 q-28 -105 -127 -165 q-102 -55 -207 -27 q-106 28 -166 127 q-25 45 -33 92 q-8 48 1 95 l1 1 q5 25 1 51 q-5 26 -19 50 l-113 196 q-33 61 -16 124 q17 64 76 100 q59 32 121 17 q62 -15 99 -71 l109 -190 q14 -23 34 -40 q19 -17 42 -25 q53 -14 97 -46 q43 -32 72 -82 l0 0 ZM249 523.66 q-32 56 39 -68 q70 -123 83 -147 q31 39 76 65 q39 22 80 31 l-87 152 q-61 106 -34 58 q-20 33 -55 42 q-35 9 -69 -9 q-33 -20 -42 -55 q-9 -35 9 -69 l0 0 ZM484 311.66 q-64 -39 -88 -105 q-24 -66 -1 -136 l342 198 q-49 55 -118 67 q-69 12 -135 -24 l0 0 ZM684 -35.34 q64 39 88 105 q24 66 0 135 l-341 -197 q49 -55 118 -67 q69 -12 135 24 l0 0 ZM375 541.66 l36 -63 q6 -10 3 -21 q-3 -10 -13 -16 q-10 -6 -20 -3 q-11 3 -17 13 l-36 63 q-6 10 -3 20 q3 11 13 17 q10 6 21 3 q10 -3 16 -13 l0 0 Z"></path></symbol><symbol id="_______46" viewBox="0 -212 1024 1024"><path d="M499 -64 q160 4 266 110 q105 106 109 265 q-4 159 -110 265 q-106 106 -265 110 q-159 -4 -265 -110 q-106 -106 -110 -265 q4 -159 110 -265 q106 -106 265 -110 l0 0 ZM499 618 q131 -3 218 -90 q86 -86 89 -217 q-3 -131 -89 -218 q-87 -86 -218 -89 q-131 3 -217 89 q-87 87 -90 218 q3 131 90 217 q86 87 217 90 l0 0 ZM321 213 q1 -24 17 -40 q15 -15 39 -15 q23 0 39 15 q15 16 15 40 q0 24 -15 39 q-16 16 -39 16 q-24 0 -39 -16 q-16 -15 -17 -39 l0 0 ZM569 213 q1 -24 17 -40 q15 -15 39 -15 q24 0 40 15 q15 16 15 40 q0 24 -15 39 q-16 16 -40 16 q-24 0 -39 -16 q-16 -15 -17 -39 l0 0 ZM685 463 q2 4 2 10 q0 9 -6 15 q-6 6 -15 6 q-13 -1 -19 -13 q-20 -41 -58 -66 q-38 -24 -87 -24 q-49 0 -87 24 q-38 25 -58 66 q-6 11 -19 12 q-9 0 -15 -6 q-6 -6 -6 -15 q0 -5 2 -9 q26 -52 74 -83 q48 -31 109 -31 q61 0 109 31 q48 31 74 83 l0 0 Z"></path></symbol><symbol id="tianjia" viewBox="0 -212 1024 1024"><path d="M522 273 l422 0 l0 49 l-422 0 l0 423 l-50 0 l0 -423 l-422 0 l0 -49 l422 0 l0 -423 l50 0 l0 423 l0 0 Z"></path></symbol><symbol id="016-weibo" viewBox="0 -212 1024 1024"><path d="M379 250.39 q20 2 45 27 q25 25 3 79 q-29 56 -97 82 q-69 26 -136 21 q-63 -3 -122 -31 q-60 -28 -72 -99 q-1 -1 3 -29 q4 -28 34 -72 q2 -5 40 -46 q38 -41 93 -64 q52 -16 67 2 q15 18 13 39 q-4 16 -3 23 q0 7 19 1 q3 -2 39 -12 q35 -10 60 9 q16 19 11 36 q-5 18 -6 19 q-2 1 -3 6 q-2 5 12 9 l0 0 ZM201 432.39 q64 -5 107 -37 q43 -32 44 -76 q-1 -42 -44 -66 q-43 -23 -107 -20 q-65 4 -107 33 q-43 29 -45 72 q2 43 45 69 q42 27 107 25 l0 0 ZM184 270.39 q62 -3 78 35 q16 39 -4 69 q-20 25 -54 33 q-34 8 -72 -11 q-17 -10 -20 -23 q-3 -13 -3 -15 q-3 -4 6 -40 q9 -36 69 -48 l0 0 ZM163 381.39 q12 -2 20 -10 q8 -7 8 -18 q0 -10 -8 -16 q-8 -6 -21 -5 q-13 1 -20 9 q-8 9 -7 19 q0 10 8 16 q8 6 20 5 l0 0 ZM212 338.39 q9 -7 5 -16 q-5 -8 -16 -1 q-4 3 -5 7 q-1 5 2 9 q5 7 14 1 l0 0 ZM420 216.39 q-6 0 -9 -4 q-4 -4 -5 -10 q3 -4 0 -29 q-4 -25 -48 -19 q-6 -1 -10 -5 q-4 -3 -4 -9 q0 -6 4 -10 q4 -4 10 -4 q6 -4 42 3 q36 8 34 74 q-3 12 -14 13 l0 0 ZM410 55.39 q44 9 80 50 q35 42 14 125 q-2 11 -7 13 q-6 3 -13 3 q-8 0 -13 -6 q-6 -5 -6 -13 q0 -8 1 -14 l2 -6 q2 -3 4 -21 q2 -17 -10 -46 q-26 -37 -58 -45 q-33 -8 -42 -4 q-6 2 -11 3 l-7 2 q-8 -1 -14 -7 q-6 -5 -6 -14 q1 -14 15 -19 l2 -1 q7 -1 27 -3 q19 -1 42 3 l0 0 Z"></path></symbol><symbol id="022-wechat" viewBox="0 -212 1024 1024"><path d="M426 155 q-82 2 -135 51 q-53 50 -55 125 q1 24 7 47 l-21 0 q-20 0 -38 -3 l-39 -8 l-78 39 l22 -67 q-42 -29 -65 -67 q-24 -37 -24 -83 q2 -81 65 -134 q63 -53 157 -55 q84 1 147 44 q62 44 78 112 q-11 -1 -21 -1 l0 0 ZM306 95 q-13 0 -23 7 q-10 8 -10 20 q0 13 10 20 q10 8 23 8 q13 0 21 -8 q7 -7 7 -20 q0 -12 -7 -20 q-8 -7 -21 -7 l0 0 ZM150 150 q13 0 21 -8 q7 -7 7 -20 q0 -12 -7 -20 q-8 -7 -21 -7 q-13 0 -23 7 q-10 8 -10 20 q0 13 10 20 q10 8 23 8 l0 0 ZM629 328 q-1 38 -22 70 q-22 33 -56 58 l16 56 l-61 -33 q-33 9 -66 11 q-82 -2 -135 -48 q-53 -45 -55 -114 q2 -68 55 -114 q53 -45 135 -47 q77 2 132 47 q54 46 57 114 l0 0 ZM378 300 q13 0 21 -7 q7 -6 7 -15 q0 -8 -7 -15 q-8 -7 -21 -7 q-8 0 -15 7 q-7 7 -7 15 q0 9 7 15 q7 7 15 7 l0 0 ZM501 300 q12 0 20 -7 q7 -6 7 -15 q0 -8 -7 -15 q-8 -7 -20 -7 q-9 0 -15 7 q-7 7 -7 15 q0 9 7 15 q6 7 15 7 l0 0 Z"></path></symbol><symbol id="017-tencent" viewBox="0 -212 1024 1024"><path d="M549 185.51 q-1 20 -68 76 q-67 56 -78 63 q5 11 29 90 q24 79 14 97 q-34 5 -102 -41 q-68 -46 -76 -53 q-8 7 -72 50 q-64 44 -88 43 q-22 -23 -6 -100 q15 -76 19 -86 q-8 -6 -63 -56 q-55 -49 -58 -74 q17 -19 101 -27 q83 -8 95 -8 q2 -9 30 -77 q27 -67 49 -81 q23 5 52 71 q29 67 32 77 q11 1 91 12 q79 12 99 24 l0 0 ZM324 231.51 q-10 8 -87 62 q-78 54 -91 70 q95 14 206 12 q110 -2 120 -4 q-5 0 -77 -7 q-73 -6 -157 -21 q9 -14 84 -70 q75 -56 84 -68 q-118 -17 -191 -10 q-74 8 -77 10 l186 26 l0 0 Z"></path></symbol><symbol id="qianbaopengyou" viewBox="0 -212 1024 1024"><path d="M314 329.83 l0 0 l0 0 q49 -5 98 11 q48 15 102 43 q-38 50 -85 79 q-47 30 -96 30 q-84 -4 -108 -50 q-24 -46 17 -86 q0 0 0 0 q0 0 0 0 q20 -15 39 -21 q19 -5 33 -6 l0 0 ZM505 -148.17 l0 0 l0 0 q189 10 311 138 q122 129 121 317 q-2 66 -21 125 q-20 59 -54 110 l42 160 l-157 -43 l0 0 q-56 40 -123 61 q-68 21 -142 19 q-188 -10 -310 -138 q-122 -128 -122 -317 q10 -188 138 -310 q129 -122 317 -122 l0 0 ZM800 514.83 l0 0 l0 0 q28 -42 45 -90 q-9 -2 -35 -11 q-26 -8 -77 -27 q-20 -7 -51 -20 q-31 -13 -64 -26 q22 -33 46 -72 q24 -38 31 -80 q-10 1 -77 0 q-67 0 -77 0 l0 -38 l173 0 l0 -38 l-173 0 l0 -76 l-95 0 l0 76 l-173 0 l0 38 l173 0 l0 38 l-154 0 l0 38 l307 0 l0 0 q-8 27 -22 51 q-13 24 -26 47 q-70 -24 -136 -37 q-66 -13 -113 -3 q-30 8 -49 20 q-19 11 -30 25 q-32 43 -30 75 q1 32 3 34 q0 -1 0 -1 q6 40 47 69 q41 30 104 31 q64 0 125 -31 q60 -31 108 -89 q35 17 95 43 q60 27 125 54 l0 0 Z"></path></symbol><symbol id="028-map" viewBox="0 -212 1024 1024"><path d="M404 242 q-32 1 -53 22 q-22 22 -23 54 q1 21 24 57 q23 37 52 72 q29 -35 52 -72 q23 -36 24 -57 q-1 -32 -22 -54 q-22 -21 -54 -22 l0 0 ZM404 210 q46 1 77 31 q30 31 31 77 q-7 50 -54 111 q-47 62 -54 67 q-7 -5 -54 -67 q-47 -61 -54 -111 q1 -46 32 -77 q30 -30 76 -31 l0 0 ZM441 308 q0 -16 -10 -27 q-11 -10 -27 -10 q-16 0 -26 10 q-11 11 -11 26 q0 16 11 26 q10 11 26 11 q16 0 27 -11 q10 -10 10 -25 l0 0 ZM191 455 l92 -37 q7 13 17 27 l-118 50 q-4 2 -7 2 q-3 0 -6 -1 l-133 -81 q-7 -3 -20 -13 q-14 -9 -16 -27 l0 -318 q0 -18 13 -30 q12 -11 30 -12 q4 0 8 3 l125 75 l154 -76 l5 -1 l7 0 l3 2 l130 78 q11 5 24 14 q12 10 13 27 l0 70 q-7 -6 -16 -12 q-9 -6 -16 -10 l0 -39 q-1 -9 -9 -15 q-8 -5 -10 -6 l-108 -65 l1 117 q-17 7 -33 16 l0 -136 l-130 64 l0 334 l0 0 ZM159 452 l0 -332 l-113 -68 q-5 -2 -9 0 q-5 2 -5 5 l0 310 q1 8 7 13 q6 5 9 6 l56 33 q48 29 55 33 l0 0 Z"></path></symbol></defs></svg>